# xmcd CD database file
#
# Track frame offsets:
#	150
#	24000
#	57425
#
# Disc length: 1022 seconds
#
# Revision: 0
# Processed by: cddbd v1.5PL3 Copyright (c) Steve Scherf et al.
# Submitted via: CDex 1.51
#
DISCID=1903fc03
DTITLE=revenus - Flower
DYEAR=2001
DGENRE=JPop
TTITLE0=Flower
TTITLE1=Happy Driving [Live Re-mix]
TTITLE2=Flower [Piano Instrumental Version]
EXTD=YEAR: 2001
EXTT0=
EXTT1=
EXTT2=
PLAYORDER=
